<svg width="28" height="32" viewBox="0 0 28 32" fill="none" xmlns="http://www.w3.org/2000/svg">
<path d="M24.3714 6.8795C24.1563 6.76821 23.9468 6.64623 23.7438 6.514C23.154 6.12402 22.6132 5.66456 22.1331 5.1455C20.9303 3.76992 20.4813 2.3745 20.3169 1.39842H20.3226C20.1852 0.586667 20.2418 0.0625 20.2518 0.0625H14.7763V21.2317C14.7763 21.5151 14.7763 21.797 14.765 22.0747C14.765 22.1087 14.7608 22.1398 14.7593 22.1781C14.7593 22.1922 14.7593 22.2092 14.7551 22.2248V22.2376C14.6976 22.9969 14.4543 23.7305 14.0467 24.3738C13.6391 25.0171 13.0797 25.5503 12.4176 25.9266C11.7269 26.3195 10.9456 26.5256 10.1509 26.5244C7.60092 26.5244 5.53259 24.4447 5.53259 21.8763C5.53259 19.3065 7.60092 17.2268 10.1509 17.2268C10.634 17.2268 11.1143 17.3033 11.5733 17.4535L11.5803 11.8775C10.1864 11.6977 8.77023 11.8087 7.42134 12.2038C6.07245 12.5988 4.8201 13.2691 3.74334 14.1725C2.79963 14.9921 2.0062 15.9701 1.39875 17.0625C1.16784 17.4606 0.295169 19.0628 0.190336 21.661C0.123753 23.1343 0.567169 24.6643 0.778253 25.2948V25.3089C0.910003 25.6801 1.42567 26.9494 2.26434 28.019C2.94065 28.8775 3.73972 29.6317 4.63584 30.2573V30.2432L4.64859 30.2573C7.29775 32.0565 10.2373 31.9389 10.2373 31.9389C10.7459 31.9177 12.4502 31.9389 14.3853 31.0223C16.5316 30.0052 17.7528 28.4907 17.7528 28.4907C18.5335 27.5857 19.1544 26.5542 19.5888 25.4407C20.0846 24.1373 20.2489 22.5762 20.2489 21.9528V10.7201C20.3155 10.7597 21.2009 11.3448 21.2009 11.3448C21.2009 11.3448 22.4759 12.1623 24.4635 12.6935C25.8887 13.0717 27.8111 13.1525 27.8111 13.1525V7.71675C27.1382 7.79042 25.7711 7.57792 24.37 6.88092L24.3714 6.8795Z" fill="black"/>
</svg>
