<svg width="66" height="66" viewBox="0 0 66 66" fill="none" xmlns="http://www.w3.org/2000/svg">
<path d="M61.765 16.5C59.6475 17.4625 57.365 18.095 55 18.3975C57.42 16.94 59.29 14.63 60.17 11.8525C57.8875 13.2275 55.3575 14.19 52.69 14.74C50.5175 12.375 47.465 11 44 11C37.5375 11 32.2575 16.28 32.2575 22.7975C32.2575 23.7325 32.3675 24.64 32.56 25.4925C22.77 24.9975 14.0525 20.295 8.25 13.1725C7.2325 14.905 6.655 16.94 6.655 19.085C6.655 23.1825 8.7175 26.8125 11.9075 28.875C9.955 28.875 8.14 28.325 6.545 27.5V27.5825C6.545 33.3025 10.615 38.0875 16.005 39.16C14.2745 39.6336 12.4578 39.6995 10.6975 39.3525C11.4444 41.6968 12.9072 43.7481 14.8803 45.2181C16.8534 46.688 19.2375 47.5027 21.6975 47.5475C17.5275 50.8487 12.3585 52.6331 7.04 52.6075C6.105 52.6075 5.17 52.5525 4.235 52.4425C9.46 55.7975 15.675 57.75 22.33 57.75C44 57.75 55.9075 39.765 55.9075 24.1725C55.9075 23.65 55.9075 23.155 55.88 22.6325C58.19 20.9825 60.17 18.8925 61.765 16.5V16.5Z" fill="#1e3d2a"/>
</svg>
