<svg width="38" height="26" viewBox="0 0 38 26" fill="none" xmlns="http://www.w3.org/2000/svg">
<path d="M37.2083 4.30271C36.9932 3.53516 36.574 2.84025 35.9955 2.29187C35.4006 1.72663 34.6715 1.3223 33.877 1.11704C30.9035 0.333291 18.9905 0.333291 18.9905 0.333291C14.0241 0.276786 9.05893 0.525309 4.123 1.07746C3.32847 1.29788 2.60073 1.71125 2.0045 2.28079C1.41867 2.84446 0.994334 3.53954 0.772667 4.30112C0.240181 7.16972 -0.018537 10.0824 6.44242e-07 13C-0.0189994 15.9149 0.239084 18.8266 0.772667 21.6988C0.989584 22.4572 1.41233 23.1491 1.99975 23.708C2.58717 24.267 3.31867 24.6707 4.123 24.8845C7.13608 25.6666 18.9905 25.6666 18.9905 25.6666C23.9632 25.7232 28.9347 25.4747 33.877 24.9225C34.6715 24.7172 35.4006 24.3129 35.9955 23.7476C36.5738 23.1994 36.9925 22.5044 37.2068 21.7368C37.7531 18.8693 38.0188 15.9554 38 13.0364C38.0411 10.105 37.7758 7.17735 37.2083 4.30112V4.30271ZM15.2032 18.4213V7.58021L25.1148 13.0015L15.2032 18.4213Z" fill="black"/>
</svg>
